5OFF
10 38 0 25 8

0.5 0.5 0.5 0 0
0.5 0.5 -0.5 0 0
0.5 -0.5 0.5 0 0
0.5 -0.5 -0.5 0 0
-0.5 0.5 0.5 0 0
-0.5 0.5 -0.5 0 0
-0.5 -0.5 0.5 0 0
-0.5 -0.5 -0.5 0 0
0 0 0 0.5 0
0 0 0 0 0.5

4 0 4 6 2
4 0 1 3 2
4 6 7 3 2
4 5 7 6 4
4 0 4 5 1
4 5 7 3 1
3 0 4 8
3 0 2 8
3 2 6 8
3 4 6 8
3 0 1 8
3 1 3 8
3 2 3 8
3 6 7 8
3 3 7 8
3 5 7 8
3 4 5 8
3 1 5 8
3 0 4 9
3 4 6 9
3 2 6 9
3 0 2 9
3 0 1 9
3 1 3 9
3 2 3 9
3 6 7 9
3 3 7 9
3 5 7 9
3 4 5 9
3 1 5 9
3 4 8 9
3 0 8 9
3 2 8 9
3 6 8 9
3 1 8 9
3 3 8 9
3 7 8 9
3 5 8 9

6 0 1 2 3 4 5
5 0 6 7 8 9
5 1 10 11 12 7
5 2 13 14 12 8
5 3 15 13 9 16
5 4 6 10 17 16
5 5 15 17 11 14
5 0 18 19 20 21
5 1 22 23 24 21
5 2 25 26 24 20
5 3 27 25 19 28
5 4 18 28 29 22
5 5 27 26 23 29
4 6 18 30 31
4 7 21 32 31
4 8 20 33 32
4 9 19 33 30
4 10 22 34 31
4 11 23 35 34
4 12 24 35 32
4 13 25 36 33
4 14 26 36 35
4 15 27 36 37
4 16 28 37 30
4 17 29 37 34

7 0 1 2 3 4 5 6
7 0 7 8 9 10 11 12
6 1 7 13 14 15 16
6 2 8 17 18 19 14
6 3 9 20 21 19 15
6 4 10 22 20 16 23
6 5 11 13 17 24 23
6 6 12 22 24 18 21
