4OFF
16 24 0 8

0.5 0.5 0.5 0
0.5 0.5 -0.5 0
0.5 -0.5 0.5 0
0.5 -0.5 -0.5 0
-0.5 0.5 0.5 0
-0.5 0.5 -0.5 0
-0.5 -0.5 0.5 0
-0.5 -0.5 -0.5 0
0.5 0.5 0.5 1
0.5 0.5 -0.5 1
0.5 -0.5 0.5 1
0.5 -0.5 -0.5 1
-0.5 0.5 0.5 1
-0.5 0.5 -0.5 1
-0.5 -0.5 0.5 1
-0.5 -0.5 -0.5 1

4 0 4 6 2
4 0 1 3 2
4 6 7 3 2
4 5 7 6 4
4 0 4 5 1
4 5 7 3 1
4 8 12 14 10
4 8 9 11 10
4 14 15 11 10
4 13 15 14 12
4 8 12 13 9
4 13 15 11 9
4 0 4 12 8
4 0 2 10 8
4 2 6 14 10
4 4 6 14 12
4 0 1 9 8
4 1 3 11 9
4 2 3 11 10
4 6 7 15 14
4 3 7 15 11
4 5 7 15 13
4 4 5 13 12
4 1 5 13 9

6 0 1 2 3 4 5
6 6 7 8 9 10 11
6 0 6 12 13 14 15
6 1 7 16 17 18 13
6 2 8 19 20 18 14
6 3 9 21 19 15 22
6 4 10 12 16 23 22
6 5 11 21 23 17 20
